<svg xmlns="http://www.w3.org/2000/svg" width="19.663" height="19.659" viewBox="0 0 19.663 19.659">
  <path id="instagram" d="M9.829,7.027a5.04,5.04,0,1,0,5.04,5.04A5.032,5.032,0,0,0,9.829,7.027Zm0,8.317a3.277,3.277,0,1,1,3.277-3.277A3.283,3.283,0,0,1,9.829,15.344Zm6.422-8.523a1.176,1.176,0,1,1-1.176-1.176A1.173,1.173,0,0,1,16.251,6.821Zm3.338,1.193A5.818,5.818,0,0,0,18,3.895a5.856,5.856,0,0,0-4.119-1.588c-1.623-.092-6.488-.092-8.111,0A5.848,5.848,0,0,0,1.652,3.89,5.837,5.837,0,0,0,.064,8.009c-.092,1.623-.092,6.488,0,8.111A5.818,5.818,0,0,0,1.652,20.24a5.864,5.864,0,0,0,4.119,1.588c1.623.092,6.488.092,8.111,0A5.818,5.818,0,0,0,18,20.24a5.856,5.856,0,0,0,1.588-4.119c.092-1.623.092-6.484,0-8.107Zm-2.1,9.848a3.318,3.318,0,0,1-1.869,1.869c-1.294.513-4.365.395-5.795.395s-4.505.114-5.795-.395a3.318,3.318,0,0,1-1.869-1.869c-.513-1.294-.395-4.365-.395-5.795s-.114-4.505.395-5.795A3.318,3.318,0,0,1,4.034,4.4C5.328,3.89,8.4,4.009,9.829,4.009s4.505-.114,5.795.395a3.318,3.318,0,0,1,1.869,1.869c.513,1.294.395,4.365.395,5.795S18.005,16.572,17.492,17.862Z" transform="translate(0.005 -2.238)" fill="#fff"/>
</svg>
