<svg xmlns="http://www.w3.org/2000/svg" width="20.969" height="17.031" viewBox="0 0 20.969 17.031">
  <path id="twitter" d="M18.814,7.625c.013.186.013.373.013.559A12.144,12.144,0,0,1,6.6,20.412,12.145,12.145,0,0,1,0,18.483a8.891,8.891,0,0,0,1.038.053A8.607,8.607,0,0,0,6.373,16.7a4.305,4.305,0,0,1-4.018-2.98,5.42,5.42,0,0,0,.812.067A4.545,4.545,0,0,0,4.3,13.639,4.3,4.3,0,0,1,.852,9.421V9.368a4.328,4.328,0,0,0,1.943.545A4.3,4.3,0,0,1,1.464,4.166a12.216,12.216,0,0,0,8.861,4.5,4.852,4.852,0,0,1-.106-.985,4.3,4.3,0,0,1,7.438-2.941A8.461,8.461,0,0,0,20.384,3.7a4.286,4.286,0,0,1-1.889,2.368A8.616,8.616,0,0,0,20.969,5.4a9.238,9.238,0,0,1-2.155,2.222Z" transform="translate(0 -3.381)" fill="#fff"/>
</svg>
